<?xml version="1.0" encoding="UTF-8" standalone="no"?>
<svg
   xmlns:dc="http://purl.org/dc/elements/1.1/"
   xmlns:cc="http://creativecommons.org/ns#"
   xmlns:rdf="http://www.w3.org/1999/02/22-rdf-syntax-ns#"
   xmlns:svg="http://www.w3.org/2000/svg"
   xmlns="http://www.w3.org/2000/svg"
   viewBox="0 0 1333.3333 1333.3333"
   height="1333.3333"
   width="1333.3333"
   xml:space="preserve"
   id="svg28"
   version="1.1"><metadata
     id="metadata34"><rdf:RDF><cc:Work
         rdf:about=""><dc:format>image/svg+xml</dc:format><dc:type
           rdf:resource="http://purl.org/dc/dcmitype/StillImage" /><dc:title></dc:title></cc:Work></rdf:RDF></metadata><defs
     id="defs32"><clipPath
       id="clipPath44"
       clipPathUnits="userSpaceOnUse"><path
         id="path42"
         d="M 0,1000 H 1000 V 0 H 0 Z" /></clipPath><clipPath
       id="clipPath52"
       clipPathUnits="userSpaceOnUse"><path
         id="path50"
         d="m 365.547,150.324 h 304 V 68.233 h -304 z" /></clipPath><clipPath
       id="clipPath66"
       clipPathUnits="userSpaceOnUse"><path
         id="path64"
         d="m 239.748,145.845 h 231 V 97.6903 h -231 z" /></clipPath><clipPath
       id="clipPath80"
       clipPathUnits="userSpaceOnUse"><path
         id="path78"
         d="M 578.547,170.048 H 797.748 V 132.422 H 578.547 Z" /></clipPath><clipPath
       id="clipPath94"
       clipPathUnits="userSpaceOnUse"><path
         id="path92"
         d="m 292.547,159.788 h 304 v -44.202 h -304 z" /></clipPath><clipPath
       id="clipPath108"
       clipPathUnits="userSpaceOnUse"><path
         id="path106"
         d="m 517.547,115.586 h 304 V 84.5499 h -304 z" /></clipPath><clipPath
       id="clipPath122"
       clipPathUnits="userSpaceOnUse"><path
         id="path120"
         d="M 239.748,89.7469 H 456.547 V 76.1316 H 239.748 Z" /></clipPath><clipPath
       id="clipPath136"
       clipPathUnits="userSpaceOnUse"><path
         id="path134"
         d="M 116.748,141.373 H 373.442 V 110.189 H 116.748 Z" /></clipPath><clipPath
       id="clipPath150"
       clipPathUnits="userSpaceOnUse"><path
         id="path148"
         d="M 292.547,165.842 H 720.748 V 58.5027 H 292.547 Z" /></clipPath><clipPath
       id="clipPath164"
       clipPathUnits="userSpaceOnUse"><path
         id="path162"
         d="m 214.547,79.1553 h 170 V 37.8501 h -170 z" /></clipPath><clipPath
       id="clipPath178"
       clipPathUnits="userSpaceOnUse"><path
         id="path176"
         d="M 538.335,75.0859 H 759.748 V 29.8313 H 538.335 Z" /></clipPath><clipPath
       id="clipPath192"
       clipPathUnits="userSpaceOnUse"><path
         id="path190"
         d="m 435.547,36.3928 h 91.201 V 19.0236 h -91.201 z" /></clipPath><clipPath
       id="clipPath206"
       clipPathUnits="userSpaceOnUse"><path
         id="path204"
         d="M 60.1416,177.285 H 173.354 V 162.81 H 60.1416 Z" /></clipPath><clipPath
       id="clipPath220"
       clipPathUnits="userSpaceOnUse"><path
         id="path218"
         d="m 609.547,206.082 h 141.895 v -9.471 H 609.547 Z" /></clipPath><clipPath
       id="clipPath234"
       clipPathUnits="userSpaceOnUse"><path
         id="path232"
         d="m 258.616,204.215 h 89.532 v -24.177 h -89.532 z" /></clipPath><clipPath
       id="clipPath248"
       clipPathUnits="userSpaceOnUse"><path
         id="path246"
         d="M 94.5474,63.1736 H 147.179 V 48.9612 H 94.5474 Z" /></clipPath><clipPath
       id="clipPath262"
       clipPathUnits="userSpaceOnUse"><path
         id="path260"
         d="m 861.741,55.8687 h 35.071 v -9.4705 h -35.071 z" /></clipPath><clipPath
       id="clipPath276"
       clipPathUnits="userSpaceOnUse"><path
         id="path274"
         d="m 825.823,181.619 h 71.835 v -41.305 h -71.835 z" /></clipPath><clipPath
       id="clipPath290"
       clipPathUnits="userSpaceOnUse"><path
         id="path288"
         d="m 186.782,171.887 h 71.834 v -41.305 h -71.834 z" /></clipPath><clipPath
       id="clipPath304"
       clipPathUnits="userSpaceOnUse"><path
         id="path302"
         d="m 214.547,240 h 25.201 v -14.491 h -25.201 z" /></clipPath><radialGradient
       id="radialGradient330"
       spreadMethod="pad"
       gradientTransform="matrix(334.94263,0,0,-334.94263,477.41959,487.34467)"
       gradientUnits="userSpaceOnUse"
       r="1"
       cy="0"
       cx="0"
       fy="0"
       fx="0"><stop
         id="stop324"
         offset="0"
         style="stop-opacity:1;stop-color:#fffb00" /><stop
         id="stop326"
         offset="0.28141303"
         style="stop-opacity:1;stop-color:#fffb00" /><stop
         id="stop328"
         offset="1"
         style="stop-opacity:1;stop-color:#ff6700" /></radialGradient><clipPath
       id="clipPath340"
       clipPathUnits="userSpaceOnUse"><path
         id="path338"
         d="M 0,1000 H 1000 V 0 H 0 Z" /></clipPath></defs><g
     transform="matrix(1.3333333,0,0,-1.3333333,0,1333.3333)"
     id="g36"><g
       transform="translate(-14.984,13.529)"
       id="g38"><g
         clip-path="url(#clipPath44)"
         id="g40"><g
           id="g46"><g
             id="g48" /><g
             id="g58"><g
               id="g56"
               opacity="0.119995"
               clip-path="url(#clipPath52)"><path
                 id="path54"
                 style="fill:#00ffff;fill-opacity:1;fill-rule:nonzero;stroke:none"
                 d="m 669.548,68.233 h -304 v 82.091 h 304 z" /></g></g></g><g
           id="g60"><g
             id="g62" /><g
             id="g72"><g
               id="g70"
               opacity="0.119995"
               clip-path="url(#clipPath66)"><path
                 id="path68"
                 style="fill:#00ffff;fill-opacity:1;fill-rule:nonzero;stroke:none"
                 d="m 470.748,97.69 h -231 v 48.154 h 231 z" /></g></g></g><g
           id="g74"><g
             id="g76" /><g
             id="g86"><g
               id="g84"
               opacity="0.119995"
               clip-path="url(#clipPath80)"><path
                 id="path82"
                 style="fill:#00ffff;fill-opacity:1;fill-rule:nonzero;stroke:none"
                 d="m 797.748,132.422 h -219.2 v 37.626 h 219.2 z" /></g></g></g><g
           id="g88"><g
             id="g90" /><g
             id="g100"><g
               id="g98"
               opacity="0.119995"
               clip-path="url(#clipPath94)"><path
                 id="path96"
                 style="fill:#00ffff;fill-opacity:1;fill-rule:nonzero;stroke:none"
                 d="m 596.548,115.586 h -304 v 44.202 h 304 z" /></g></g></g><g
           id="g102"><g
             id="g104" /><g
             id="g114"><g
               id="g112"
               opacity="0.119995"
               clip-path="url(#clipPath108)"><path
                 id="path110"
                 style="fill:#00ffff;fill-opacity:1;fill-rule:nonzero;stroke:none"
                 d="m 821.548,84.55 h -304 v 31.036 h 304 z" /></g></g></g><g
           id="g116"><g
             id="g118" /><g
             id="g128"><g
               id="g126"
               opacity="0.119995"
               clip-path="url(#clipPath122)"><path
                 id="path124"
                 style="fill:#00ffff;fill-opacity:1;fill-rule:nonzero;stroke:none"
                 d="M 456.547,76.132 H 239.748 v 13.615 h 216.799 z" /></g></g></g><g
           id="g130"><g
             id="g132" /><g
             id="g142"><g
               id="g140"
               opacity="0.119995"
               clip-path="url(#clipPath136)"><path
                 id="path138"
                 style="fill:#00ffff;fill-opacity:1;fill-rule:nonzero;stroke:none"
                 d="M 373.442,110.189 H 116.748 v 31.184 h 256.694 z" /></g></g></g><g
           id="g144"><g
             id="g146" /><g
             id="g156"><g
               id="g154"
               opacity="0.119995"
               clip-path="url(#clipPath150)"><path
                 id="path152"
                 style="fill:#00ffff;fill-opacity:1;fill-rule:nonzero;stroke:none"
                 d="M 720.748,58.503 H 292.547 v 107.339 h 428.201 z" /></g></g></g><g
           id="g158"><g
             id="g160" /><g
             id="g170"><g
               id="g168"
               opacity="0.119995"
               clip-path="url(#clipPath164)"><path
                 id="path166"
                 style="fill:#00ffff;fill-opacity:1;fill-rule:nonzero;stroke:none"
                 d="m 384.547,37.85 h -170 v 41.306 h 170 z" /></g></g></g><g
           id="g172"><g
             id="g174" /><g
             id="g184"><g
               id="g182"
               opacity="0.119995"
               clip-path="url(#clipPath178)"><path
                 id="path180"
                 style="fill:#00ffff;fill-opacity:1;fill-rule:nonzero;stroke:none"
                 d="M 759.748,29.831 H 538.335 v 45.255 h 221.413 z" /></g></g></g><g
           id="g186"><g
             id="g188" /><g
             id="g198"><g
               id="g196"
               opacity="0.119995"
               clip-path="url(#clipPath192)"><path
                 id="path194"
                 style="fill:#00ffff;fill-opacity:1;fill-rule:nonzero;stroke:none"
                 d="m 526.748,19.023 h -91.201 v 17.369 h 91.201 z" /></g></g></g><g
           id="g200"><g
             id="g202" /><g
             id="g212"><g
               id="g210"
               opacity="0.119995"
               clip-path="url(#clipPath206)"><path
                 id="path208"
                 style="fill:#00ffff;fill-opacity:1;fill-rule:nonzero;stroke:none"
                 d="M 173.354,162.81 H 60.142 v 14.476 h 113.212 z" /></g></g></g><g
           id="g214"><g
             id="g216" /><g
             id="g226"><g
               id="g224"
               opacity="0.119995"
               clip-path="url(#clipPath220)"><path
                 id="path222"
                 style="fill:#00ffff;fill-opacity:1;fill-rule:nonzero;stroke:none"
                 d="M 751.442,196.611 H 609.547 v 9.471 h 141.895 z" /></g></g></g><g
           id="g228"><g
             id="g230" /><g
             id="g240"><g
               id="g238"
               opacity="0.119995"
               clip-path="url(#clipPath234)"><path
                 id="path236"
                 style="fill:#00ffff;fill-opacity:1;fill-rule:nonzero;stroke:none"
                 d="m 348.147,180.038 h -89.532 v 24.177 h 89.532 z" /></g></g></g><g
           id="g242"><g
             id="g244" /><g
             id="g254"><g
               id="g252"
               opacity="0.119995"
               clip-path="url(#clipPath248)"><path
                 id="path250"
                 style="fill:#00ffff;fill-opacity:1;fill-rule:nonzero;stroke:none"
                 d="M 147.179,48.961 H 94.548 v 14.213 h 52.631 z" /></g></g></g><g
           id="g256"><g
             id="g258" /><g
             id="g268"><g
               id="g266"
               opacity="0.119995"
               clip-path="url(#clipPath262)"><path
                 id="path264"
                 style="fill:#00ffff;fill-opacity:1;fill-rule:nonzero;stroke:none"
                 d="m 896.812,46.398 h -35.071 v 9.471 h 35.071 z" /></g></g></g><g
           id="g270"><g
             id="g272" /><g
             id="g282"><g
               id="g280"
               opacity="0.119995"
               clip-path="url(#clipPath276)"><path
                 id="path278"
                 style="fill:#00ffff;fill-opacity:1;fill-rule:nonzero;stroke:none"
                 d="m 897.658,140.314 h -71.835 v 41.305 h 71.835 z" /></g></g></g><g
           id="g284"><g
             id="g286" /><g
             id="g296"><g
               id="g294"
               opacity="0.119995"
               clip-path="url(#clipPath290)"><path
                 id="path292"
                 style="fill:#00ffff;fill-opacity:1;fill-rule:nonzero;stroke:none"
                 d="m 258.616,130.582 h -71.834 v 41.306 h 71.834 z" /></g></g></g><g
           id="g298"><g
             id="g300" /><g
             id="g310"><g
               id="g308"
               opacity="0.119995"
               clip-path="url(#clipPath304)"><path
                 id="path306"
                 style="fill:#00ffff;fill-opacity:1;fill-rule:nonzero;stroke:none"
                 d="M 239.748,225.51 H 214.547 V 240 h 25.201 z" /></g></g></g></g></g><g
       id="g312"><g
         id="g314"><g
           id="g320"><g
             id="g322"><path
               id="path332"
               style="fill:url(#radialGradient330);stroke:none"
               d="m 384.481,923.333 c -17.961,-0.022 -32.447,-14.742 -32.447,-32.704 v 0 -683.232 c -34.377,-8.676 -59.818,-39.812 -59.781,-76.892 v 0 c 0.04,-42.741 34.582,-78.119 77.31,-79.126 v 0 c 44.631,-1.054 81.142,34.811 81.142,79.203 v 0 c 0,37.046 -25.429,68.144 -59.782,76.815 v 0 682.275 c 124.897,-3.238 225.15,-105.498 225.15,-231.176 v 0 c 0,-60.348 -23.121,-115.293 -60.982,-156.471 v 0 c -4.622,-5.028 -7.234,-11.579 -7.234,-18.409 v 0 -24.169 c 0,-2.517 1.409,-5.33 5.071,-5.576 v 0 c 44.664,-2.625 80.077,-39.662 80.077,-84.984 v 0 c 0,-41.132 -29.165,-75.452 -67.944,-83.408 v 0 c -6.212,24.298 -28.764,42.057 -55.257,40.878 v 0 c -28.06,-1.248 -50.807,-24.102 -51.934,-52.168 v 0 c -1.249,-31.102 23.597,-56.709 54.422,-56.709 v 0 c 24.279,0 44.839,15.89 51.871,37.836 v 0 c 55.639,7.918 98.424,55.744 98.424,113.571 v 0 c 0,52.329 -35.035,96.471 -82.928,110.259 v 0 c 43.449,47.177 69.992,110.16 69.992,179.35 v 0 c 0,146.266 -118.572,264.837 -264.837,264.837 v 0 c -0.111,0 -0.222,0 -0.333,0 M 486.508,271.947 c 0,14.239 11.544,25.784 25.784,25.784 v 0 c 14.24,0 25.784,-11.545 25.784,-25.784 v 0 c 0,-14.241 -11.544,-25.785 -25.784,-25.785 v 0 c -14.24,0 -25.784,11.544 -25.784,25.785 M 323.999,130.582 c 0,26.222 21.257,47.479 47.48,47.479 v 0 c 26.221,0 47.478,-21.257 47.478,-47.479 v 0 c 0,-26.222 -21.257,-47.479 -47.478,-47.479 v 0 c -26.223,0 -47.48,21.257 -47.48,47.479" /></g></g></g></g><g
       id="g334"><g
         clip-path="url(#clipPath340)"
         id="g336"><g
           transform="translate(512.292,246.1621)"
           id="g342"><path
             id="path344"
             style="fill:none;stroke:#000000;stroke-width:2;stroke-linecap:butt;stroke-linejoin:miter;stroke-miterlimit:10;stroke-dasharray:none;stroke-opacity:1"
             d="m 0,0 c -14.24,0 -25.784,11.544 -25.784,25.784 0,14.24 11.544,25.784 25.784,25.784 14.24,0 25.784,-11.544 25.784,-25.784 C 25.784,11.544 14.24,0 0,0 Z m -93.334,-115.58 c 0,-26.222 -21.258,-47.479 -47.479,-47.479 -26.223,0 -47.479,21.257 -47.479,47.479 0,26.223 21.256,47.479 47.479,47.479 26.221,0 47.479,-21.256 47.479,-47.479 z M 67.367,232.984 c 43.448,47.176 69.992,110.159 69.992,179.35 0,146.266 -118.572,264.837 -264.837,264.837 -0.111,0 -0.222,0 -0.333,0 -17.961,-0.023 -32.447,-14.742 -32.447,-32.704 V -38.766 c -34.377,-8.675 -59.817,-39.811 -59.782,-76.891 0.041,-42.74 34.583,-78.118 77.311,-79.126 44.631,-1.054 81.142,34.811 81.142,79.203 0,37.046 -25.429,68.144 -59.782,76.814 V 643.511 C 3.527,640.272 103.78,538.012 103.78,412.334 c 0,-60.348 -23.12,-115.293 -60.981,-156.471 -4.622,-5.028 -7.234,-11.579 -7.234,-18.409 v -24.169 c 0,-2.517 1.409,-5.33 5.072,-5.576 44.663,-2.625 80.076,-39.662 80.076,-84.984 C 120.713,81.593 91.548,47.273 52.77,39.317 46.557,63.615 24.006,81.374 -2.488,80.195 -30.548,78.946 -53.295,56.093 -54.421,28.027 -55.67,-3.075 -30.826,-28.683 0,-28.683 c 24.279,0 44.84,15.891 51.871,37.836 55.639,7.918 98.424,55.744 98.424,113.572 0,52.329 -35.035,96.471 -82.928,110.259 z" /></g></g></g></g></svg>
